<?xml version="1.0" encoding="utf-8"?>
<svg viewBox="0.9997 5.519 114.146 26.215" xmlns="http://www.w3.org/2000/svg">
  <g transform="matrix(1, 0, 0, 1, 1.4210854715202004e-14, 3.552713678800501e-15)">
    <path d="M 9.429 5.519 L 18.468 5.519 C 18.768 5.519 19 5.519 19.202 5.539 C 20.636 5.682 21.811 6.553 22.309 7.732 L 5.588 7.732 C 6.089 6.553 7.261 5.682 8.698 5.539 C 8.898 5.519 9.129 5.519 9.429 5.519 Z" style="fill: rgb(255, 255, 255);"/>
    <path d="M 6.582 9.088 C 4.779 9.088 3.305 10.19 2.813 11.649 C 2.803 11.679 2.791 11.709 2.783 11.741 C 3.297 11.583 3.835 11.48 4.376 11.409 C 5.777 11.227 7.545 11.227 9.598 11.227 L 18.522 11.227 C 20.575 11.227 22.346 11.227 23.742 11.409 C 24.286 11.48 24.823 11.583 25.338 11.741 C 25.329 11.709 25.32 11.679 25.308 11.649 C 24.814 10.19 23.34 9.088 21.54 9.088 L 6.582 9.088 Z" style="fill: rgb(255, 255, 255);"/>
    <path d="M 12.979 25.179 C 12.979 24.637 12.543 24.197 12.005 24.197 C 11.47 24.197 11.036 24.637 11.036 25.179 C 11.036 25.724 11.47 26.163 12.005 26.163 C 12.543 26.163 12.979 25.724 12.979 25.179 Z" style="fill: rgb(255, 255, 255);"/>
    <path fill-rule="evenodd" clip-rule="evenodd" d="M 9.64 12.784 L 18.257 12.784 C 22.627 12.784 24.814 12.784 26.041 14.077 C 27.268 15.371 26.978 17.368 26.401 21.367 L 25.854 25.154 C 25.4 28.29 25.174 29.857 24.012 30.796 C 22.853 31.734 21.138 31.734 17.711 31.734 L 10.189 31.734 C 6.761 31.734 5.047 31.734 3.885 30.796 C 2.723 29.857 2.497 28.29 2.043 25.154 L 1.498 21.367 C 0.919 17.368 0.629 15.371 1.858 14.077 C 3.085 12.784 5.27 12.784 9.64 12.784 Z M 14.918 16.659 C 14.918 16.118 14.487 15.678 13.949 15.678 C 13.413 15.678 12.979 16.118 12.979 16.659 L 12.979 22.399 C 12.674 22.289 12.347 22.23 12.005 22.23 C 10.398 22.23 9.094 23.552 9.094 25.179 C 9.094 26.809 10.398 28.13 12.005 28.13 C 13.615 28.13 14.918 26.809 14.918 25.179 L 14.918 20.357 C 15.79 21.071 16.878 21.575 17.835 21.575 C 18.372 21.575 18.803 21.136 18.803 20.593 C 18.803 20.051 18.372 19.609 17.835 19.609 C 17.437 19.609 16.688 19.324 15.999 18.705 C 15.328 18.102 14.918 17.366 14.918 16.659 Z" style="fill: rgb(255, 255, 255);"/>
    <path d="M 31.243 20.62 L 33.704 20.381 Q 33.926 21.62 34.606 22.201 Q 35.285 22.782 36.439 22.782 Q 37.661 22.782 38.28 22.265 Q 38.9 21.748 38.9 21.056 Q 38.9 20.612 38.639 20.3 Q 38.378 19.988 37.729 19.757 Q 37.285 19.603 35.704 19.21 Q 33.67 18.706 32.85 17.971 Q 31.696 16.937 31.696 15.45 Q 31.696 14.493 32.239 13.66 Q 32.781 12.827 33.803 12.391 Q 34.824 11.956 36.268 11.956 Q 38.626 11.956 39.818 12.989 Q 41.01 14.023 41.07 15.749 L 38.541 15.861 Q 38.378 14.895 37.844 14.472 Q 37.31 14.049 36.242 14.049 Q 35.14 14.049 34.516 14.502 Q 34.114 14.792 34.114 15.279 Q 34.114 15.724 34.49 16.04 Q 34.969 16.442 36.815 16.877 Q 38.66 17.313 39.545 17.779 Q 40.429 18.245 40.929 19.052 Q 41.429 19.86 41.429 21.047 Q 41.429 22.124 40.831 23.064 Q 40.233 24.004 39.139 24.461 Q 38.045 24.918 36.413 24.918 Q 34.038 24.918 32.764 23.82 Q 31.491 22.722 31.243 20.62 Z M 41.16 20.03 Q 41.16 18.834 41.749 17.715 Q 42.339 16.595 43.42 16.006 Q 44.501 15.416 45.834 15.416 Q 47.893 15.416 49.209 16.753 Q 50.525 18.091 50.525 20.133 Q 50.525 22.192 49.196 23.547 Q 47.868 24.901 45.851 24.901 Q 44.604 24.901 43.471 24.337 Q 42.339 23.773 41.749 22.684 Q 41.16 21.594 41.16 20.03 Z M 43.621 20.159 Q 43.621 21.509 44.262 22.227 Q 44.903 22.944 45.843 22.944 Q 46.782 22.944 47.419 22.227 Q 48.056 21.509 48.056 20.142 Q 48.056 18.809 47.419 18.091 Q 46.782 17.373 45.843 17.373 Q 44.903 17.373 44.262 18.091 Q 43.621 18.809 43.621 20.159 Z M 57.411 24.696 L 57.411 23.337 Q 56.916 24.064 56.108 24.482 Q 55.301 24.901 54.404 24.901 Q 53.489 24.901 52.763 24.499 Q 52.037 24.098 51.712 23.372 Q 51.387 22.645 51.387 21.363 L 51.387 15.621 L 53.788 15.621 L 53.788 19.791 Q 53.788 21.705 53.921 22.137 Q 54.053 22.568 54.404 22.82 Q 54.754 23.072 55.292 23.072 Q 55.907 23.072 56.395 22.735 Q 56.882 22.397 57.061 21.898 Q 57.24 21.398 57.24 19.449 L 57.24 15.621 L 59.642 15.621 L 59.642 24.696 Z M 69.025 24.696 L 66.624 24.696 L 66.624 20.065 Q 66.624 18.595 66.47 18.163 Q 66.316 17.732 65.97 17.493 Q 65.624 17.253 65.137 17.253 Q 64.514 17.253 64.018 17.595 Q 63.522 17.937 63.339 18.501 Q 63.155 19.065 63.155 20.586 L 63.155 24.696 L 60.754 24.696 L 60.754 15.621 L 62.984 15.621 L 62.984 16.954 Q 64.172 15.416 65.975 15.416 Q 66.769 15.416 67.427 15.702 Q 68.085 15.989 68.423 16.433 Q 68.76 16.877 68.893 17.441 Q 69.025 18.005 69.025 19.056 Z M 78.41 24.696 L 76.18 24.696 L 76.18 23.363 Q 75.625 24.141 74.868 24.521 Q 74.112 24.901 73.343 24.901 Q 71.779 24.901 70.664 23.641 Q 69.549 22.38 69.549 20.124 Q 69.549 17.817 70.634 16.617 Q 71.72 15.416 73.377 15.416 Q 74.898 15.416 76.009 16.681 L 76.009 12.169 L 78.41 12.169 Z M 72.002 19.962 Q 72.002 21.415 72.403 22.064 Q 72.984 23.004 74.027 23.004 Q 74.856 23.004 75.437 22.299 Q 76.018 21.594 76.018 20.193 Q 76.018 18.629 75.454 17.941 Q 74.89 17.253 74.01 17.253 Q 73.155 17.253 72.578 17.933 Q 72.002 18.612 72.002 19.962 Z M 79.421 20.62 L 81.882 20.381 Q 82.105 21.62 82.784 22.201 Q 83.463 22.782 84.617 22.782 Q 85.839 22.782 86.458 22.265 Q 87.078 21.748 87.078 21.056 Q 87.078 20.612 86.817 20.3 Q 86.556 19.988 85.907 19.757 Q 85.463 19.603 83.882 19.21 Q 81.848 18.706 81.028 17.971 Q 79.874 16.937 79.874 15.45 Q 79.874 14.493 80.417 13.66 Q 80.959 12.827 81.981 12.391 Q 83.002 11.956 84.446 11.956 Q 86.804 11.956 87.996 12.989 Q 89.188 14.023 89.248 15.749 L 86.719 15.861 Q 86.556 14.895 86.022 14.472 Q 85.488 14.049 84.42 14.049 Q 83.318 14.049 82.694 14.502 Q 82.292 14.792 82.292 15.279 Q 82.292 15.724 82.668 16.04 Q 83.147 16.442 84.993 16.877 Q 86.838 17.313 87.723 17.779 Q 88.607 18.245 89.107 19.052 Q 89.607 19.86 89.607 21.047 Q 89.607 22.124 89.009 23.064 Q 88.411 24.004 87.317 24.461 Q 86.223 24.918 84.591 24.918 Q 82.216 24.918 80.942 23.82 Q 79.669 22.722 79.421 20.62 Z M 89.841 15.621 L 92.079 15.621 L 92.079 16.954 Q 92.515 16.271 93.259 15.843 Q 94.002 15.416 94.908 15.416 Q 96.489 15.416 97.591 16.655 Q 98.693 17.894 98.693 20.107 Q 98.693 22.38 97.582 23.641 Q 96.472 24.901 94.891 24.901 Q 94.139 24.901 93.528 24.602 Q 92.917 24.303 92.242 23.577 L 92.242 28.148 L 89.841 28.148 Z M 92.216 20.005 Q 92.216 21.534 92.823 22.265 Q 93.43 22.996 94.301 22.996 Q 95.139 22.996 95.694 22.325 Q 96.249 21.654 96.249 20.124 Q 96.249 18.697 95.677 18.005 Q 95.104 17.313 94.258 17.313 Q 93.378 17.313 92.797 17.993 Q 92.216 18.672 92.216 20.005 Z M 99.311 20.03 Q 99.311 18.834 99.901 17.715 Q 100.49 16.595 101.571 16.006 Q 102.652 15.416 103.985 15.416 Q 106.045 15.416 107.361 16.753 Q 108.676 18.091 108.676 20.133 Q 108.676 22.192 107.348 23.547 Q 106.019 24.901 104.002 24.901 Q 102.755 24.901 101.623 24.337 Q 100.49 23.773 99.901 22.684 Q 99.311 21.594 99.311 20.03 Z M 101.772 20.159 Q 101.772 21.509 102.413 22.227 Q 103.054 22.944 103.994 22.944 Q 104.934 22.944 105.57 22.227 Q 106.207 21.509 106.207 20.142 Q 106.207 18.809 105.57 18.091 Q 104.934 17.373 103.994 17.373 Q 103.054 17.373 102.413 18.091 Q 101.772 18.809 101.772 20.159 Z M 113.548 15.621 L 113.548 17.535 L 111.907 17.535 L 111.907 21.193 Q 111.907 22.303 111.954 22.487 Q 112.001 22.671 112.168 22.79 Q 112.335 22.91 112.574 22.91 Q 112.907 22.91 113.539 22.679 L 113.745 24.542 Q 112.907 24.901 111.848 24.901 Q 111.198 24.901 110.677 24.683 Q 110.156 24.465 109.912 24.119 Q 109.669 23.773 109.575 23.184 Q 109.498 22.765 109.498 21.492 L 109.498 17.535 L 108.395 17.535 L 108.395 15.621 L 109.498 15.621 L 109.498 13.818 L 111.907 12.417 L 111.907 15.621 Z" style="fill: rgb(255, 255, 255); stroke-width: 0px;"/>
  </g>
</svg>