<?xml version="1.0" encoding="utf-8"?>
<svg viewBox="0.9997 5.519 25.898 26.215" xmlns="http://www.w3.org/2000/svg">
  <path d="M 9.429 5.519 L 18.468 5.519 C 18.768 5.519 19 5.519 19.202 5.539 C 20.636 5.682 21.811 6.553 22.309 7.732 L 5.588 7.732 C 6.089 6.553 7.261 5.682 8.698 5.539 C 8.898 5.519 9.129 5.519 9.429 5.519 Z" style="fill: rgb(255, 255, 255);" transform="matrix(1, 0, 0, 1, 1.4210854715202004e-14, 5.329070518200751e-15)"/>
  <path d="M 6.582 9.088 C 4.779 9.088 3.305 10.19 2.813 11.649 C 2.803 11.679 2.791 11.709 2.783 11.741 C 3.297 11.583 3.835 11.48 4.376 11.409 C 5.777 11.227 7.545 11.227 9.598 11.227 L 18.522 11.227 C 20.575 11.227 22.346 11.227 23.742 11.409 C 24.286 11.48 24.823 11.583 25.338 11.741 C 25.329 11.709 25.32 11.679 25.308 11.649 C 24.814 10.19 23.34 9.088 21.54 9.088 L 6.582 9.088 Z" style="fill: rgb(255, 255, 255);" transform="matrix(1, 0, 0, 1, 1.4210854715202004e-14, 5.329070518200751e-15)"/>
  <path d="M 12.979 25.179 C 12.979 24.637 12.543 24.197 12.005 24.197 C 11.47 24.197 11.036 24.637 11.036 25.179 C 11.036 25.724 11.47 26.163 12.005 26.163 C 12.543 26.163 12.979 25.724 12.979 25.179 Z" style="fill: rgb(255, 255, 255);" transform="matrix(1, 0, 0, 1, 1.4210854715202004e-14, 5.329070518200751e-15)"/>
  <path fill-rule="evenodd" clip-rule="evenodd" d="M 9.64 12.784 L 18.257 12.784 C 22.627 12.784 24.814 12.784 26.041 14.077 C 27.268 15.371 26.978 17.368 26.401 21.367 L 25.854 25.154 C 25.4 28.29 25.174 29.857 24.012 30.796 C 22.853 31.734 21.138 31.734 17.711 31.734 L 10.189 31.734 C 6.761 31.734 5.047 31.734 3.885 30.796 C 2.723 29.857 2.497 28.29 2.043 25.154 L 1.498 21.367 C 0.919 17.368 0.629 15.371 1.858 14.077 C 3.085 12.784 5.27 12.784 9.64 12.784 Z M 14.918 16.659 C 14.918 16.118 14.487 15.678 13.949 15.678 C 13.413 15.678 12.979 16.118 12.979 16.659 L 12.979 22.399 C 12.674 22.289 12.347 22.23 12.005 22.23 C 10.398 22.23 9.094 23.552 9.094 25.179 C 9.094 26.809 10.398 28.13 12.005 28.13 C 13.615 28.13 14.918 26.809 14.918 25.179 L 14.918 20.357 C 15.79 21.071 16.878 21.575 17.835 21.575 C 18.372 21.575 18.803 21.136 18.803 20.593 C 18.803 20.051 18.372 19.609 17.835 19.609 C 17.437 19.609 16.688 19.324 15.999 18.705 C 15.328 18.102 14.918 17.366 14.918 16.659 Z" style="fill: rgb(255, 255, 255);" transform="matrix(1, 0, 0, 1, 1.4210854715202004e-14, 5.329070518200751e-15)"/>
</svg>